<svg id="inner-gear-icon" xmlns="http://www.w3.org/2000/svg" xmlns:xlink="http://www.w3.org/1999/xlink" width="85px"
    height="85px" viewBox="0 0 512 512" version="1.1">
    <g id="surface1">
        <path class="gear"
            d="
            M 408.320312 276.054688 
            C 409.171875 269.652344 409.601562 263.039062 409.601562 256 
            C 409.601562 249.171875 409.171875 242.347656 408.105469 235.945312 
            L 451.414062 202.238281 
            C 455.253906 199.253906 456.320312 193.492188 453.972656 189.226562 
            L 413.011719 118.398438 
            C 410.453125 113.707031 405.121094 112.214844 400.425781 113.707031 
            L 349.441406 134.1875 
            C 338.773438 126.078125 327.464844 119.253906 314.878906 114.132812 
            L 307.199219 59.945312 
            C 306.347656 54.828125 302.078125 51.199219 296.960938 51.199219 
            L 215.039062 51.199219 
            C 209.921875 51.199219 205.867188 54.828125 205.011719 59.945312 
            L 197.332031 114.132812 
            C 184.746094 119.253906 173.226562 126.292969 162.773438 134.1875 
            L 111.785156 113.707031 
            C 107.09375 112 101.761719 113.707031 99.199219 118.398438 
            L 58.453125 189.226562 
            C 55.894531 193.707031 56.746094 199.253906 61.011719 202.238281 
            L 104.320312 235.945312 
            C 103.253906 242.347656 102.398438 249.386719 102.398438 256 
            C 102.398438 262.613281 102.828125 269.652344 103.894531 276.054688 
            L 60.585938 309.761719 
            C 56.746094 312.746094 55.679688 318.507812 58.027344 322.773438 
            L 98.988281 393.601562 
            C 101.546875 398.292969 106.878906 399.785156 111.574219 398.292969 
            L 162.558594 377.8125 
            C 173.226562 385.921875 184.535156 392.746094 197.121094 397.867188 
            L 204.800781 452.054688 
            C 205.867188 457.171875 209.921875 460.800781 215.039062 460.800781 L 296.960938 460.800781 C 302.078125 460.800781 306.347656 457.171875 306.988281 452.054688 L 314.667969 397.867188 C 327.253906 392.746094 338.773438 385.921875 349.226562 377.8125 L 400.214844 398.292969 C 404.90625 400 410.238281 398.292969 412.800781 393.601562 L 453.761719 322.773438 C 456.320312 318.078125 455.253906 312.746094 451.199219 309.761719 Z M 256 332.800781 C 213.761719 332.800781 179.199219 298.238281 179.199219 256 C 179.199219 213.761719 213.761719 179.199219 256 179.199219 C 298.238281 179.199219 332.800781 213.761719 332.800781 256 C 332.800781 298.238281 298.238281 332.800781 256 332.800781 " />
    </g>
    <style>
        .gear {
            stroke-width: 16.5px;
            stroke: #1a44ff;
            fill-rule: nonzero;
            fill: #0077ff;
            fill-opacity: 0.9;
            -webkit-backdrop-filter: blur(1.75px);
            backdrop-filter: blur(1.75px);
        }
    </style>
</svg>